<svg width="40" height="41" viewBox="0 0 40 41" fill="none" xmlns="http://www.w3.org/2000/svg">
<rect width="40" height="40" transform="translate(0 0.482544)" fill="white"/>
<path d="M20 7.14923C21.7681 7.14923 23.4638 7.85161 24.7141 9.10185C25.9643 10.3521 26.6667 12.0478 26.6667 13.8159C26.6667 15.584 25.9643 17.2797 24.7141 18.5299C23.4638 19.7802 21.7681 20.4826 20 20.4826C18.2319 20.4826 16.5362 19.7802 15.286 18.5299C14.0357 17.2797 13.3334 15.584 13.3334 13.8159C13.3334 12.0478 14.0357 10.3521 15.286 9.10185C16.5362 7.85161 18.2319 7.14923 20 7.14923ZM20 23.8159C27.3667 23.8159 33.3334 26.7992 33.3334 30.4826V33.8159H6.66669V30.4826C6.66669 26.7992 12.6334 23.8159 20 23.8159Z" fill="#173F39"/>
</svg>
